<mxfile host="Electron" modified="2024-02-22T15:26:12.990Z" agent="Mozilla/5.0 (Windows NT 10.0; Win64; x64) AppleWebKit/537.36 (KHTML, like Gecko) draw.io/21.6.1 Chrome/112.0.5615.204 Electron/24.6.1 Safari/537.36" etag="9alK6_AhoFKEWEivxbie" version="21.6.1" type="device">
  <diagram name="Página-1" id="7Cgc1EzrPvPUfzWyMZzP">
    <mxGraphModel dx="1884" dy="1193" grid="0" gridSize="10" guides="1" tooltips="1" connect="1" arrows="1" fold="1" page="0" pageScale="1" pageWidth="827" pageHeight="1169" math="0" shadow="0">
      <root>
        <mxCell id="0" />
        <mxCell id="1" parent="0" />
        <mxCell id="Y7_J3LvWRUM-ilzWAc7u-1" value="" style="rounded=0;whiteSpace=wrap;html=1;fontSize=16;" vertex="1" parent="1">
          <mxGeometry x="187" y="177" width="1311" height="832" as="geometry" />
        </mxCell>
        <mxCell id="Y7_J3LvWRUM-ilzWAc7u-2" value="" style="rounded=0;whiteSpace=wrap;html=1;fontSize=16;" vertex="1" parent="1">
          <mxGeometry x="187" y="173" width="1311" height="57" as="geometry" />
        </mxCell>
        <mxCell id="Y7_J3LvWRUM-ilzWAc7u-3" value="Modelo de negocios CANVAS" style="text;html=1;strokeColor=none;fillColor=none;align=center;verticalAlign=middle;whiteSpace=wrap;rounded=0;fontSize=16;" vertex="1" parent="1">
          <mxGeometry x="204" y="184" width="269" height="30" as="geometry" />
        </mxCell>
        <mxCell id="Y7_J3LvWRUM-ilzWAc7u-6" value="" style="rounded=0;whiteSpace=wrap;html=1;fontSize=16;" vertex="1" parent="1">
          <mxGeometry x="1326" y="173" width="172" height="57" as="geometry" />
        </mxCell>
        <mxCell id="Y7_J3LvWRUM-ilzWAc7u-7" value="" style="rounded=0;whiteSpace=wrap;html=1;fontSize=16;" vertex="1" parent="1">
          <mxGeometry x="1326" y="173" width="173" height="31" as="geometry" />
        </mxCell>
        <mxCell id="Y7_J3LvWRUM-ilzWAc7u-8" value="Fecha: 22/02/2024" style="text;html=1;strokeColor=none;fillColor=none;align=center;verticalAlign=middle;whiteSpace=wrap;rounded=0;fontSize=16;" vertex="1" parent="1">
          <mxGeometry x="1329" y="181" width="159" height="15" as="geometry" />
        </mxCell>
        <mxCell id="Y7_J3LvWRUM-ilzWAc7u-9" value="Version 1" style="text;html=1;strokeColor=none;fillColor=none;align=center;verticalAlign=middle;whiteSpace=wrap;rounded=0;fontSize=16;" vertex="1" parent="1">
          <mxGeometry x="1315" y="196" width="180" height="37" as="geometry" />
        </mxCell>
        <mxCell id="Y7_J3LvWRUM-ilzWAc7u-10" value="" style="rounded=0;whiteSpace=wrap;html=1;fontSize=16;" vertex="1" parent="1">
          <mxGeometry x="818" y="173" width="508" height="57" as="geometry" />
        </mxCell>
        <mxCell id="Y7_J3LvWRUM-ilzWAc7u-11" value="Grupo: Aventura 360" style="text;html=1;strokeColor=none;fillColor=none;align=center;verticalAlign=middle;whiteSpace=wrap;rounded=0;fontSize=16;" vertex="1" parent="1">
          <mxGeometry x="962" y="186.5" width="163" height="30" as="geometry" />
        </mxCell>
        <mxCell id="Y7_J3LvWRUM-ilzWAc7u-12" value="" style="rounded=0;whiteSpace=wrap;html=1;fontSize=16;" vertex="1" parent="1">
          <mxGeometry x="187" y="230" width="219" height="779" as="geometry" />
        </mxCell>
        <mxCell id="Y7_J3LvWRUM-ilzWAc7u-13" value="" style="rounded=0;whiteSpace=wrap;html=1;fontSize=16;" vertex="1" parent="1">
          <mxGeometry x="406" y="230" width="317" height="359" as="geometry" />
        </mxCell>
        <mxCell id="Y7_J3LvWRUM-ilzWAc7u-14" value="" style="rounded=0;whiteSpace=wrap;html=1;fontSize=16;" vertex="1" parent="1">
          <mxGeometry x="406" y="589" width="317" height="420" as="geometry" />
        </mxCell>
        <mxCell id="Y7_J3LvWRUM-ilzWAc7u-15" value="" style="rounded=0;whiteSpace=wrap;html=1;fontSize=16;" vertex="1" parent="1">
          <mxGeometry x="723" y="230" width="239" height="779" as="geometry" />
        </mxCell>
        <mxCell id="Y7_J3LvWRUM-ilzWAc7u-16" value="" style="rounded=0;whiteSpace=wrap;html=1;fontSize=16;" vertex="1" parent="1">
          <mxGeometry x="962" y="230" width="296" height="403" as="geometry" />
        </mxCell>
        <mxCell id="Y7_J3LvWRUM-ilzWAc7u-17" value="" style="rounded=0;whiteSpace=wrap;html=1;fontSize=16;" vertex="1" parent="1">
          <mxGeometry x="962" y="633" width="296" height="376" as="geometry" />
        </mxCell>
        <mxCell id="Y7_J3LvWRUM-ilzWAc7u-18" value="Aliados:" style="text;html=1;strokeColor=none;fillColor=none;align=center;verticalAlign=middle;whiteSpace=wrap;rounded=0;fontSize=16;fontStyle=1" vertex="1" parent="1">
          <mxGeometry x="266.5" y="245" width="60" height="30" as="geometry" />
        </mxCell>
        <mxCell id="Y7_J3LvWRUM-ilzWAc7u-19" value="Los aliados serian las empresas que ofrecen servicios de transporte y hospedaje" style="text;html=1;strokeColor=none;fillColor=none;align=center;verticalAlign=middle;whiteSpace=wrap;rounded=0;fontSize=16;" vertex="1" parent="1">
          <mxGeometry x="204" y="306" width="176" height="156" as="geometry" />
        </mxCell>
        <mxCell id="Y7_J3LvWRUM-ilzWAc7u-20" value="Como ser:" style="text;html=1;strokeColor=none;fillColor=none;align=center;verticalAlign=middle;whiteSpace=wrap;rounded=0;fontSize=16;" vertex="1" parent="1">
          <mxGeometry x="255.5" y="462" width="82" height="25" as="geometry" />
        </mxCell>
        <mxCell id="Y7_J3LvWRUM-ilzWAc7u-22" value="Aerolíneas Sosa, Avianca Honduras, CM Airlines, Delta Air Lines, Spirit Airlines, American Airlines, Avianca El Salvador, Aeroméxico connect" style="text;html=1;strokeColor=none;fillColor=none;align=center;verticalAlign=middle;whiteSpace=wrap;rounded=0;fontSize=16;" vertex="1" parent="1">
          <mxGeometry x="199.5" y="527" width="185" height="124" as="geometry" />
        </mxCell>
        <mxCell id="Y7_J3LvWRUM-ilzWAc7u-23" value="&lt;div&gt;Hilton Hotels &amp;amp; Resorts&lt;/div&gt;&lt;div&gt;Marriott International&lt;/div&gt;&lt;div&gt;InterContinental Hotels Group (IHG)&lt;/div&gt;&lt;div&gt;AccorHotels&lt;/div&gt;&lt;div&gt;Best Western&lt;/div&gt;&lt;div&gt;Radisson Hotel Group&lt;/div&gt;&lt;div&gt;Choice Hotels International&lt;/div&gt;&lt;div&gt;Barceló Hotels &amp;amp; Resorts&lt;/div&gt;&lt;div&gt;Hyatt&lt;/div&gt;" style="text;html=1;strokeColor=none;fillColor=none;align=center;verticalAlign=middle;whiteSpace=wrap;rounded=0;fontSize=16;" vertex="1" parent="1">
          <mxGeometry x="213.5" y="670" width="166" height="285" as="geometry" />
        </mxCell>
        <mxCell id="Y7_J3LvWRUM-ilzWAc7u-24" value="Actividades clave:" style="text;html=1;strokeColor=none;fillColor=none;align=center;verticalAlign=middle;whiteSpace=wrap;rounded=0;fontSize=16;fontStyle=1" vertex="1" parent="1">
          <mxGeometry x="494.25" y="244" width="142.5" height="31" as="geometry" />
        </mxCell>
        <mxCell id="Y7_J3LvWRUM-ilzWAc7u-28" value="Recursos claves:" style="text;html=1;strokeColor=none;fillColor=none;align=center;verticalAlign=middle;whiteSpace=wrap;rounded=0;fontSize=16;fontStyle=1" vertex="1" parent="1">
          <mxGeometry x="493.75" y="600" width="149" height="25" as="geometry" />
        </mxCell>
        <mxCell id="Y7_J3LvWRUM-ilzWAc7u-30" value="Propuestas de valor:" style="text;html=1;strokeColor=none;fillColor=none;align=center;verticalAlign=middle;whiteSpace=wrap;rounded=0;fontSize=16;fontStyle=1" vertex="1" parent="1">
          <mxGeometry x="759.5" y="246.5" width="166" height="27" as="geometry" />
        </mxCell>
        <mxCell id="Y7_J3LvWRUM-ilzWAc7u-31" value="&lt;div&gt;&lt;b&gt;Garantía de Seguridad:&lt;/b&gt;&lt;/div&gt;&lt;div&gt;Priorizamos la seguridad del cliente y utilizamos medidas avanzadas de protección de datos para garantizar transacciones seguras en línea.&lt;br&gt;&lt;br&gt;&lt;div&gt;&lt;b&gt;Variedad de Experiencias:&lt;/b&gt;&lt;/div&gt;&lt;div&gt;&lt;span style=&quot;background-color: initial;&quot;&gt;Ofrecemos una amplia gama de actividades de aventura en destinos emocionantes para satisfacer todos los gustos y niveles de experiencia.&lt;/span&gt;&lt;br&gt;&lt;/div&gt;&lt;div&gt;&lt;br&gt;&lt;/div&gt;&lt;div&gt;&lt;b&gt;Reservas Simples y Rápidas:&lt;/b&gt;&lt;/div&gt;&lt;div&gt;Facilitamos el proceso de reserva con una plataforma intuitiva que permite a los usuarios reservar boletos y alojamientos de manera rápida y sin complicaciones.&lt;br&gt;&lt;br&gt;&lt;/div&gt;&lt;div&gt;&lt;b&gt;Información Detallada:&lt;/b&gt;&lt;/div&gt;&lt;div&gt;Proporcionamos información completa y detallada sobre destinos, rutas y actividades para que los clientes tomen decisiones informadas.&lt;/div&gt;&lt;/div&gt;" style="text;html=1;strokeColor=none;fillColor=none;align=center;verticalAlign=middle;whiteSpace=wrap;rounded=0;fontSize=16;" vertex="1" parent="1">
          <mxGeometry x="737" y="267" width="211" height="664.5" as="geometry" />
        </mxCell>
        <mxCell id="Y7_J3LvWRUM-ilzWAc7u-32" value="Relacion con los clientes:" style="text;html=1;strokeColor=none;fillColor=none;align=center;verticalAlign=middle;whiteSpace=wrap;rounded=0;fontSize=16;fontStyle=1" vertex="1" parent="1">
          <mxGeometry x="1004.5" y="243.5" width="211" height="23.5" as="geometry" />
        </mxCell>
        <mxCell id="Y7_J3LvWRUM-ilzWAc7u-33" value="&lt;div style=&quot;font-size: 14px;&quot;&gt;&lt;b&gt;Programas de Lealtad:&lt;/b&gt;&lt;/div&gt;&lt;div style=&quot;font-size: 14px;&quot;&gt;Implementar programas de lealtad que recompensen a los clientes frecuentes con descuentos, ofertas exclusivas o beneficios adicionales.&lt;br&gt;&lt;br style=&quot;font-size: 14px;&quot;&gt;&lt;div style=&quot;font-size: 14px;&quot;&gt;&lt;b&gt;Gestión de Problemas de Manera Efectiva:&lt;/b&gt;&lt;/div&gt;&lt;div style=&quot;font-size: 14px;&quot;&gt;Gestionar los problemas o inconvenientes de manera proactiva y resolverlos rápidamente para mantener la confianza del cliente.&lt;br style=&quot;font-size: 14px;&quot;&gt;&lt;br style=&quot;font-size: 14px;&quot;&gt;&lt;div style=&quot;font-size: 14px;&quot;&gt;&lt;b&gt;Redes Sociales y Comunidad:&lt;/b&gt;&lt;/div&gt;&lt;div style=&quot;font-size: 14px;&quot;&gt;Fomentar una presencia activa en redes sociales para interactuar con los clientes, compartir historias de éxito y crear una comunidad en línea alrededor de las experiencias de aventura.&lt;/div&gt;&lt;br style=&quot;font-size: 14px;&quot;&gt;&lt;/div&gt;&lt;/div&gt;" style="text;html=1;strokeColor=none;fillColor=none;align=center;verticalAlign=middle;whiteSpace=wrap;rounded=0;fontSize=14;" vertex="1" parent="1">
          <mxGeometry x="982.5" y="271" width="264.5" height="374" as="geometry" />
        </mxCell>
        <mxCell id="Y7_J3LvWRUM-ilzWAc7u-35" value="Comunicación y distribución:" style="text;html=1;strokeColor=none;fillColor=none;align=center;verticalAlign=middle;whiteSpace=wrap;rounded=0;fontSize=16;fontStyle=1" vertex="1" parent="1">
          <mxGeometry x="991.75" y="644" width="246" height="26" as="geometry" />
        </mxCell>
        <mxCell id="Y7_J3LvWRUM-ilzWAc7u-36" value="&lt;div style=&quot;font-size: 14px;&quot;&gt;&lt;b&gt;Respuesta Rápida en Tiempo Real:&lt;/b&gt;&lt;/div&gt;&lt;div style=&quot;&quot;&gt;Proporcionar soporte en tiempo real a través de chat en vivo para resolver consultas y problemas de manera rápida y eficiente.&lt;br style=&quot;font-size: 14px;&quot;&gt;&lt;br style=&quot;font-size: 14px;&quot;&gt;&lt;div style=&quot;font-size: 14px;&quot;&gt;&lt;b&gt;Plataforma Multicanal:&lt;/b&gt;&lt;/div&gt;&lt;div style=&quot;&quot;&gt;Ofrecer opciones de comunicación a través de varios canales, como chat en línea, correo electrónico y redes sociales, para adaptarse a las preferencias de los clientes.&lt;br&gt;&lt;br&gt;&lt;div style=&quot;&quot;&gt;&lt;b&gt;Marketing Digital:&lt;/b&gt;&lt;/div&gt;&lt;div style=&quot;&quot;&gt;Utilizar estrategias de marketing digital, como SEO, publicidad en redes sociales y marketing de contenidos, para aumentar la visibilidad en línea.&lt;/div&gt;&lt;/div&gt;&lt;/div&gt;" style="text;html=1;strokeColor=none;fillColor=none;align=center;verticalAlign=middle;whiteSpace=wrap;rounded=0;fontSize=14;" vertex="1" parent="1">
          <mxGeometry x="986" y="685" width="248" height="283" as="geometry" />
        </mxCell>
        <mxCell id="Y7_J3LvWRUM-ilzWAc7u-37" value="Segmento de clientes:" style="text;html=1;strokeColor=none;fillColor=none;align=center;verticalAlign=middle;whiteSpace=wrap;rounded=0;fontSize=16;fontStyle=1" vertex="1" parent="1">
          <mxGeometry x="1288" y="225.38" width="191" height="59.75" as="geometry" />
        </mxCell>
        <mxCell id="Y7_J3LvWRUM-ilzWAc7u-39" value="&lt;div&gt;&lt;b&gt;Grupos de Amigos y Familias:&lt;/b&gt;&lt;/div&gt;&lt;div&gt;&lt;span style=&quot;background-color: initial;&quot;&gt;Grupos de amigos o familias que buscan actividades emocionantes y memorables para compartir juntos.&lt;br&gt;&lt;/span&gt;&lt;br&gt;&lt;/div&gt;&lt;div&gt;&lt;b&gt;Viajeros Solitarios:&lt;/b&gt;&lt;/div&gt;&lt;div&gt;Individuos que prefieren viajar solos y buscan experiencias grupales o actividades guiadas para conocer gente nueva.&lt;br&gt;&lt;br&gt;&lt;/div&gt;&lt;div&gt;&lt;b&gt;Empresas de Incentivos y Eventos Corporativos:&lt;/b&gt;&lt;/div&gt;&lt;div&gt;Empresas que buscan opciones de team building y actividades de incentivo para sus empleados.&lt;br&gt;&lt;br&gt;&lt;/div&gt;&lt;div&gt;&lt;b&gt;Turistas Extrajeros:&lt;/b&gt;&lt;/div&gt;&lt;div&gt;Visitantes extranjeros que buscan experiencias auténticas y emocionantes durante su estancia en la región.&lt;/div&gt;" style="text;html=1;strokeColor=none;fillColor=none;align=center;verticalAlign=middle;whiteSpace=wrap;rounded=0;fontSize=16;" vertex="1" parent="1">
          <mxGeometry x="1291" y="251" width="185" height="676" as="geometry" />
        </mxCell>
        <mxCell id="Y7_J3LvWRUM-ilzWAc7u-40" value="&lt;div style=&quot;font-size: 14px;&quot;&gt;&lt;b&gt;Investigación de Destinos:&lt;/b&gt;&lt;/div&gt;&lt;div style=&quot;font-size: 14px;&quot;&gt;Investigar y evaluar nuevos destinos y rutas para mantener la variedad y frescura en las experiencias.&lt;/div&gt;&lt;div style=&quot;font-size: 14px;&quot;&gt;&lt;br style=&quot;font-size: 14px;&quot;&gt;&lt;/div&gt;&lt;div style=&quot;font-size: 14px;&quot;&gt;&lt;b&gt;Desarrollo de Partnerships:&lt;/b&gt;&lt;/div&gt;&lt;div style=&quot;font-size: 14px;&quot;&gt;Establecer alianzas con proveedores locales, hoteles y otras empresas para mejorar la oferta.&lt;/div&gt;&lt;div style=&quot;font-size: 14px;&quot;&gt;Servicio al Cliente.&lt;/div&gt;&lt;div style=&quot;font-size: 14px;&quot;&gt;&lt;br style=&quot;font-size: 14px;&quot;&gt;&lt;/div&gt;&lt;div style=&quot;font-size: 14px;&quot;&gt;&lt;b&gt;Diseño de Rutas y Experiencias:&lt;/b&gt;&lt;/div&gt;&lt;div style=&quot;font-size: 14px;&quot;&gt;Crear itinerarios emocionantes y atractivos para los clientes.&lt;/div&gt;&lt;div style=&quot;font-size: 14px;&quot;&gt;&lt;br style=&quot;font-size: 14px;&quot;&gt;&lt;/div&gt;&lt;div style=&quot;font-size: 14px;&quot;&gt;&lt;b&gt;Reservas y Logística.&lt;/b&gt;&lt;/div&gt;" style="text;html=1;strokeColor=none;fillColor=none;align=center;verticalAlign=middle;whiteSpace=wrap;rounded=0;fontSize=14;" vertex="1" parent="1">
          <mxGeometry x="440" y="237" width="249" height="374.5" as="geometry" />
        </mxCell>
        <mxCell id="Y7_J3LvWRUM-ilzWAc7u-42" value="&lt;b&gt;Seguridad en Línea:&lt;br style=&quot;border-color: var(--border-color); padding: 0px; margin: 0px; font-size: 13px; text-align: left;&quot;&gt;&lt;/b&gt;&lt;span style=&quot;font-size: 13px; text-align: left;&quot;&gt;Implementación de medidas de seguridad cibernética para proteger los datos del usuario y garantizar transacciones seguras.&lt;/span&gt;&lt;br style=&quot;border-color: var(--border-color); padding: 0px; margin: 0px; font-size: 13px; text-align: left;&quot;&gt;&lt;br style=&quot;border-color: var(--border-color); padding: 0px; margin: 0px; font-size: 13px; text-align: left;&quot;&gt;&lt;b&gt;&lt;span style=&quot;font-size: 13px; text-align: left;&quot;&gt;Personal de Soporte al Cliente:&lt;/span&gt;&lt;br style=&quot;border-color: var(--border-color); padding: 0px; margin: 0px; font-size: 13px; text-align: left;&quot;&gt;&lt;/b&gt;&lt;span style=&quot;font-size: 13px; text-align: left;&quot;&gt;Un equipo de atención al cliente para resolver consultas, problemas técnicos y brindar asistencia en línea.&lt;/span&gt;&lt;br style=&quot;border-color: var(--border-color); padding: 0px; margin: 0px; font-size: 13px; text-align: left;&quot;&gt;&lt;br style=&quot;border-color: var(--border-color); padding: 0px; margin: 0px; font-size: 13px; text-align: left;&quot;&gt;&lt;b&gt;&lt;span style=&quot;font-size: 13px; text-align: left;&quot;&gt;Plataforma Tecnológica:&lt;/span&gt;&lt;br style=&quot;border-color: var(--border-color); padding: 0px; margin: 0px; font-size: 13px; text-align: left;&quot;&gt;&lt;/b&gt;&lt;span style=&quot;font-size: 13px; text-align: left;&quot;&gt;Desarrollo y mantenimiento de la plataforma web para facilitar la compra de boletos y reservas de hospedaje.&lt;/span&gt;&lt;br style=&quot;border-color: var(--border-color); padding: 0px; margin: 0px; font-size: 13px; text-align: left;&quot;&gt;&lt;br style=&quot;border-color: var(--border-color); padding: 0px; margin: 0px; font-size: 13px; text-align: left;&quot;&gt;&lt;b&gt;&lt;span style=&quot;font-size: 13px; text-align: left;&quot;&gt;Colaboraciones con Proveedores:&lt;/span&gt;&lt;br style=&quot;border-color: var(--border-color); padding: 0px; margin: 0px; font-size: 13px; text-align: left;&quot;&gt;&lt;/b&gt;&lt;span style=&quot;font-size: 13px; text-align: left;&quot;&gt;Establecimiento de asociaciones con proveedores de servicios, hoteles y otras empresas para ofrecer opciones variadas.&lt;/span&gt;" style="text;html=1;strokeColor=none;fillColor=none;align=center;verticalAlign=middle;whiteSpace=wrap;rounded=0;fontSize=13;" vertex="1" parent="1">
          <mxGeometry x="430.5" y="625" width="268" height="361" as="geometry" />
        </mxCell>
      </root>
    </mxGraphModel>
  </diagram>
</mxfile>
